<mxfile host="app.diagrams.net" agent="Mozilla/5.0 (Macintosh; Intel Mac OS X 10.15; rv:129.0) Gecko/20100101 Firefox/129.0" version="24.7.8">
  <diagram name="Page-1" id="sEtmTvHNIr7mzB_GdHuX">
    <mxGraphModel dx="1257" dy="805" grid="1" gridSize="10" guides="1" tooltips="1" connect="1" arrows="1" fold="1" page="1" pageScale="1" pageWidth="850" pageHeight="1100" math="1" shadow="0">
      <root>
        <mxCell id="0" />
        <mxCell id="1" parent="0" />
        <mxCell id="xdnr9z3-dwy1BLktOAw8-111" value="" style="shape=parallelogram;perimeter=parallelogramPerimeter;whiteSpace=wrap;html=1;fixedSize=1;size=59.5;fillColor=#FF0000;strokeColor=none;fillOpacity=30;" vertex="1" parent="1">
          <mxGeometry x="520" y="330" width="140" height="50" as="geometry" />
        </mxCell>
        <mxCell id="xdnr9z3-dwy1BLktOAw8-13" value="" style="endArrow=none;html=1;rounded=0;" edge="1" parent="1">
          <mxGeometry width="50" height="50" relative="1" as="geometry">
            <mxPoint x="480" y="280" as="sourcePoint" />
            <mxPoint x="880" y="280" as="targetPoint" />
          </mxGeometry>
        </mxCell>
        <mxCell id="xdnr9z3-dwy1BLktOAw8-19" value="" style="endArrow=none;html=1;rounded=0;" edge="1" parent="1">
          <mxGeometry width="50" height="50" relative="1" as="geometry">
            <mxPoint x="240" y="480" as="sourcePoint" />
            <mxPoint x="540" y="230" as="targetPoint" />
          </mxGeometry>
        </mxCell>
        <mxCell id="xdnr9z3-dwy1BLktOAw8-22" value="" style="endArrow=none;html=1;rounded=0;" edge="1" parent="1">
          <mxGeometry width="50" height="50" relative="1" as="geometry">
            <mxPoint x="320" y="480" as="sourcePoint" />
            <mxPoint x="620" y="230" as="targetPoint" />
          </mxGeometry>
        </mxCell>
        <mxCell id="xdnr9z3-dwy1BLktOAw8-23" value="" style="endArrow=none;html=1;rounded=0;" edge="1" parent="1">
          <mxGeometry width="50" height="50" relative="1" as="geometry">
            <mxPoint x="400" y="480" as="sourcePoint" />
            <mxPoint x="700" y="230" as="targetPoint" />
          </mxGeometry>
        </mxCell>
        <mxCell id="xdnr9z3-dwy1BLktOAw8-24" value="" style="endArrow=none;html=1;rounded=0;" edge="1" parent="1">
          <mxGeometry width="50" height="50" relative="1" as="geometry">
            <mxPoint x="480" y="480" as="sourcePoint" />
            <mxPoint x="780" y="230" as="targetPoint" />
          </mxGeometry>
        </mxCell>
        <mxCell id="xdnr9z3-dwy1BLktOAw8-25" value="" style="endArrow=none;html=1;rounded=0;" edge="1" parent="1">
          <mxGeometry width="50" height="50" relative="1" as="geometry">
            <mxPoint x="560" y="480" as="sourcePoint" />
            <mxPoint x="860" y="230" as="targetPoint" />
          </mxGeometry>
        </mxCell>
        <mxCell id="xdnr9z3-dwy1BLktOAw8-26" value="" style="endArrow=none;html=1;rounded=0;" edge="1" parent="1">
          <mxGeometry width="50" height="50" relative="1" as="geometry">
            <mxPoint x="640" y="480" as="sourcePoint" />
            <mxPoint x="940" y="230" as="targetPoint" />
          </mxGeometry>
        </mxCell>
        <mxCell id="xdnr9z3-dwy1BLktOAw8-48" value="" style="endArrow=none;html=1;rounded=0;curved=1;dashed=1;dashPattern=1 1;strokeColor=#CC0000;strokeWidth=3;" edge="1" parent="1">
          <mxGeometry width="50" height="50" relative="1" as="geometry">
            <mxPoint x="500" y="430" as="sourcePoint" />
            <mxPoint x="704" y="360" as="targetPoint" />
            <Array as="points">
              <mxPoint x="620" y="430" />
            </Array>
          </mxGeometry>
        </mxCell>
        <mxCell id="xdnr9z3-dwy1BLktOAw8-52" value="" style="endArrow=none;html=1;rounded=0;curved=1;dashed=1;dashPattern=1 1;strokeColor=#CC0000;strokeWidth=3;" edge="1" parent="1">
          <mxGeometry width="50" height="50" relative="1" as="geometry">
            <mxPoint x="704" y="360" as="sourcePoint" />
            <mxPoint x="680" y="280" as="targetPoint" />
            <Array as="points">
              <mxPoint x="800" y="280" />
            </Array>
          </mxGeometry>
        </mxCell>
        <mxCell id="xdnr9z3-dwy1BLktOAw8-53" value="" style="endArrow=none;html=1;rounded=0;curved=1;dashed=1;dashPattern=1 1;strokeColor=#CC0000;strokeWidth=3;" edge="1" parent="1">
          <mxGeometry width="50" height="50" relative="1" as="geometry">
            <mxPoint x="476" y="350" as="sourcePoint" />
            <mxPoint x="680" y="280" as="targetPoint" />
            <Array as="points">
              <mxPoint x="560" y="280" />
            </Array>
          </mxGeometry>
        </mxCell>
        <mxCell id="xdnr9z3-dwy1BLktOAw8-54" value="" style="endArrow=none;html=1;rounded=0;curved=1;dashed=1;dashPattern=1 1;strokeColor=#CC0000;strokeWidth=3;" edge="1" parent="1">
          <mxGeometry width="50" height="50" relative="1" as="geometry">
            <mxPoint x="500" y="430" as="sourcePoint" />
            <mxPoint x="476" y="350" as="targetPoint" />
            <Array as="points">
              <mxPoint x="380" y="430" />
            </Array>
          </mxGeometry>
        </mxCell>
        <mxCell id="xdnr9z3-dwy1BLktOAw8-55" value="" style="endArrow=none;html=1;rounded=0;" edge="1" parent="1">
          <mxGeometry width="50" height="50" relative="1" as="geometry">
            <mxPoint x="540" y="230" as="sourcePoint" />
            <mxPoint x="940" y="230" as="targetPoint" />
          </mxGeometry>
        </mxCell>
        <mxCell id="xdnr9z3-dwy1BLktOAw8-56" value="" style="endArrow=none;html=1;rounded=0;" edge="1" parent="1">
          <mxGeometry width="50" height="50" relative="1" as="geometry">
            <mxPoint x="420" y="330" as="sourcePoint" />
            <mxPoint x="820" y="330" as="targetPoint" />
          </mxGeometry>
        </mxCell>
        <mxCell id="xdnr9z3-dwy1BLktOAw8-57" value="" style="endArrow=none;html=1;rounded=0;" edge="1" parent="1">
          <mxGeometry width="50" height="50" relative="1" as="geometry">
            <mxPoint x="360" y="380" as="sourcePoint" />
            <mxPoint x="760" y="380" as="targetPoint" />
          </mxGeometry>
        </mxCell>
        <mxCell id="xdnr9z3-dwy1BLktOAw8-58" value="" style="endArrow=none;html=1;rounded=0;" edge="1" parent="1">
          <mxGeometry width="50" height="50" relative="1" as="geometry">
            <mxPoint x="300" y="430" as="sourcePoint" />
            <mxPoint x="700" y="430" as="targetPoint" />
          </mxGeometry>
        </mxCell>
        <mxCell id="xdnr9z3-dwy1BLktOAw8-61" value="" style="endArrow=none;html=1;rounded=0;" edge="1" parent="1">
          <mxGeometry width="50" height="50" relative="1" as="geometry">
            <mxPoint x="240" y="480" as="sourcePoint" />
            <mxPoint x="640" y="480" as="targetPoint" />
          </mxGeometry>
        </mxCell>
        <mxCell id="xdnr9z3-dwy1BLktOAw8-62" value="" style="ellipse;whiteSpace=wrap;html=1;aspect=fixed;fillColor=#FFFF33;" vertex="1" parent="1">
          <mxGeometry x="602" y="150" width="15" height="15" as="geometry" />
        </mxCell>
        <mxCell id="xdnr9z3-dwy1BLktOAw8-63" value="" style="endArrow=none;html=1;strokeWidth=2;rounded=0;" edge="1" parent="1" source="xdnr9z3-dwy1BLktOAw8-62">
          <mxGeometry width="50" height="50" relative="1" as="geometry">
            <mxPoint x="550" y="90" as="sourcePoint" />
            <mxPoint x="610" y="400" as="targetPoint" />
          </mxGeometry>
        </mxCell>
        <mxCell id="xdnr9z3-dwy1BLktOAw8-64" value="" style="ellipse;whiteSpace=wrap;html=1;aspect=fixed;fillColor=#FF0000;" vertex="1" parent="1">
          <mxGeometry x="572" y="110" width="15" height="15" as="geometry" />
        </mxCell>
        <mxCell id="xdnr9z3-dwy1BLktOAw8-65" value="" style="endArrow=none;html=1;strokeWidth=2;rounded=0;" edge="1" parent="1" source="xdnr9z3-dwy1BLktOAw8-64">
          <mxGeometry width="50" height="50" relative="1" as="geometry">
            <mxPoint x="520" y="40" as="sourcePoint" />
            <mxPoint x="580" y="350" as="targetPoint" />
          </mxGeometry>
        </mxCell>
        <mxCell id="xdnr9z3-dwy1BLktOAw8-67" value="" style="ellipse;whiteSpace=wrap;html=1;aspect=fixed;fillColor=#FF0000;" vertex="1" parent="1">
          <mxGeometry x="612" y="30" width="15" height="15" as="geometry" />
        </mxCell>
        <mxCell id="xdnr9z3-dwy1BLktOAw8-68" value="" style="endArrow=none;html=1;strokeWidth=2;rounded=0;" edge="1" parent="1" source="xdnr9z3-dwy1BLktOAw8-67">
          <mxGeometry width="50" height="50" relative="1" as="geometry">
            <mxPoint x="560" y="30" as="sourcePoint" />
            <mxPoint x="620" y="340" as="targetPoint" />
          </mxGeometry>
        </mxCell>
        <mxCell id="xdnr9z3-dwy1BLktOAw8-71" value="" style="ellipse;whiteSpace=wrap;html=1;aspect=fixed;fillColor=#FF9933;" vertex="1" parent="1">
          <mxGeometry x="502" y="120" width="15" height="15" as="geometry" />
        </mxCell>
        <mxCell id="xdnr9z3-dwy1BLktOAw8-72" value="" style="endArrow=none;html=1;strokeWidth=2;rounded=0;" edge="1" parent="1" source="xdnr9z3-dwy1BLktOAw8-71">
          <mxGeometry width="50" height="50" relative="1" as="geometry">
            <mxPoint x="450" y="50" as="sourcePoint" />
            <mxPoint x="510" y="360" as="targetPoint" />
          </mxGeometry>
        </mxCell>
        <mxCell id="xdnr9z3-dwy1BLktOAw8-73" value="" style="ellipse;whiteSpace=wrap;html=1;aspect=fixed;fillColor=#FF9933;" vertex="1" parent="1">
          <mxGeometry x="532" y="170" width="15" height="15" as="geometry" />
        </mxCell>
        <mxCell id="xdnr9z3-dwy1BLktOAw8-74" value="" style="endArrow=none;html=1;strokeWidth=2;rounded=0;" edge="1" parent="1" source="xdnr9z3-dwy1BLktOAw8-73">
          <mxGeometry width="50" height="50" relative="1" as="geometry">
            <mxPoint x="480" y="100" as="sourcePoint" />
            <mxPoint x="540" y="410" as="targetPoint" />
          </mxGeometry>
        </mxCell>
        <mxCell id="xdnr9z3-dwy1BLktOAw8-75" value="" style="ellipse;whiteSpace=wrap;html=1;aspect=fixed;fillColor=#FFFF33;" vertex="1" parent="1">
          <mxGeometry x="722" y="60" width="15" height="15" as="geometry" />
        </mxCell>
        <mxCell id="xdnr9z3-dwy1BLktOAw8-76" value="" style="endArrow=none;html=1;strokeWidth=2;rounded=0;" edge="1" parent="1" source="xdnr9z3-dwy1BLktOAw8-75">
          <mxGeometry width="50" height="50" relative="1" as="geometry">
            <mxPoint x="670" y="-10" as="sourcePoint" />
            <mxPoint x="730" y="300" as="targetPoint" />
          </mxGeometry>
        </mxCell>
        <mxCell id="xdnr9z3-dwy1BLktOAw8-77" value="" style="ellipse;whiteSpace=wrap;html=1;aspect=fixed;" vertex="1" parent="1">
          <mxGeometry x="362" y="170" width="15" height="15" as="geometry" />
        </mxCell>
        <mxCell id="xdnr9z3-dwy1BLktOAw8-78" value="" style="endArrow=none;dashed=1;html=1;strokeWidth=1;rounded=0;" edge="1" parent="1" source="xdnr9z3-dwy1BLktOAw8-77">
          <mxGeometry width="50" height="50" relative="1" as="geometry">
            <mxPoint x="310" y="100" as="sourcePoint" />
            <mxPoint x="370" y="410" as="targetPoint" />
          </mxGeometry>
        </mxCell>
        <mxCell id="xdnr9z3-dwy1BLktOAw8-79" value="" style="ellipse;whiteSpace=wrap;html=1;aspect=fixed;fillColor=#FFFFFF;" vertex="1" parent="1">
          <mxGeometry x="752" y="110" width="15" height="15" as="geometry" />
        </mxCell>
        <mxCell id="xdnr9z3-dwy1BLktOAw8-80" value="" style="endArrow=none;dashed=1;html=1;strokeWidth=1;rounded=0;" edge="1" parent="1">
          <mxGeometry width="50" height="50" relative="1" as="geometry">
            <mxPoint x="760" y="125" as="sourcePoint" />
            <mxPoint x="760" y="350" as="targetPoint" />
          </mxGeometry>
        </mxCell>
        <mxCell id="xdnr9z3-dwy1BLktOAw8-81" value="" style="ellipse;whiteSpace=wrap;html=1;aspect=fixed;" vertex="1" parent="1">
          <mxGeometry x="872" y="80" width="15" height="15" as="geometry" />
        </mxCell>
        <mxCell id="xdnr9z3-dwy1BLktOAw8-82" value="" style="endArrow=none;dashed=1;html=1;strokeWidth=1;rounded=0;" edge="1" parent="1" source="xdnr9z3-dwy1BLktOAw8-81">
          <mxGeometry width="50" height="50" relative="1" as="geometry">
            <mxPoint x="820" y="-60" as="sourcePoint" />
            <mxPoint x="880" y="250" as="targetPoint" />
          </mxGeometry>
        </mxCell>
        <mxCell id="xdnr9z3-dwy1BLktOAw8-83" value="" style="endArrow=none;html=1;rounded=0;" edge="1" parent="1">
          <mxGeometry width="50" height="50" relative="1" as="geometry">
            <mxPoint x="300" y="430" as="sourcePoint" />
            <mxPoint x="317" y="416" as="targetPoint" />
          </mxGeometry>
        </mxCell>
        <mxCell id="xdnr9z3-dwy1BLktOAw8-84" value="" style="endArrow=none;html=1;rounded=0;" edge="1" parent="1">
          <mxGeometry width="50" height="50" relative="1" as="geometry">
            <mxPoint x="364" y="414" as="sourcePoint" />
            <mxPoint x="375" y="406" as="targetPoint" />
          </mxGeometry>
        </mxCell>
        <mxCell id="xdnr9z3-dwy1BLktOAw8-86" value="" style="endArrow=none;html=1;rounded=0;" edge="1" parent="1">
          <mxGeometry width="50" height="50" relative="1" as="geometry">
            <mxPoint x="375" y="414" as="sourcePoint" />
            <mxPoint x="365" y="406" as="targetPoint" />
          </mxGeometry>
        </mxCell>
        <mxCell id="xdnr9z3-dwy1BLktOAw8-87" value="" style="endArrow=none;html=1;rounded=0;" edge="1" parent="1">
          <mxGeometry width="50" height="50" relative="1" as="geometry">
            <mxPoint x="534" y="414" as="sourcePoint" />
            <mxPoint x="545" y="406" as="targetPoint" />
          </mxGeometry>
        </mxCell>
        <mxCell id="xdnr9z3-dwy1BLktOAw8-88" value="" style="endArrow=none;html=1;rounded=0;" edge="1" parent="1">
          <mxGeometry width="50" height="50" relative="1" as="geometry">
            <mxPoint x="545" y="414" as="sourcePoint" />
            <mxPoint x="535" y="406" as="targetPoint" />
          </mxGeometry>
        </mxCell>
        <mxCell id="xdnr9z3-dwy1BLktOAw8-89" value="" style="endArrow=none;html=1;rounded=0;" edge="1" parent="1">
          <mxGeometry width="50" height="50" relative="1" as="geometry">
            <mxPoint x="604" y="404" as="sourcePoint" />
            <mxPoint x="615" y="396" as="targetPoint" />
          </mxGeometry>
        </mxCell>
        <mxCell id="xdnr9z3-dwy1BLktOAw8-90" value="" style="endArrow=none;html=1;rounded=0;" edge="1" parent="1">
          <mxGeometry width="50" height="50" relative="1" as="geometry">
            <mxPoint x="615" y="404" as="sourcePoint" />
            <mxPoint x="605" y="396" as="targetPoint" />
          </mxGeometry>
        </mxCell>
        <mxCell id="xdnr9z3-dwy1BLktOAw8-91" value="" style="endArrow=none;html=1;rounded=0;" edge="1" parent="1">
          <mxGeometry width="50" height="50" relative="1" as="geometry">
            <mxPoint x="574" y="354" as="sourcePoint" />
            <mxPoint x="585" y="346" as="targetPoint" />
          </mxGeometry>
        </mxCell>
        <mxCell id="xdnr9z3-dwy1BLktOAw8-92" value="" style="endArrow=none;html=1;rounded=0;" edge="1" parent="1">
          <mxGeometry width="50" height="50" relative="1" as="geometry">
            <mxPoint x="585" y="354" as="sourcePoint" />
            <mxPoint x="575" y="346" as="targetPoint" />
          </mxGeometry>
        </mxCell>
        <mxCell id="xdnr9z3-dwy1BLktOAw8-93" value="" style="endArrow=none;html=1;rounded=0;" edge="1" parent="1">
          <mxGeometry width="50" height="50" relative="1" as="geometry">
            <mxPoint x="504" y="364" as="sourcePoint" />
            <mxPoint x="515" y="356" as="targetPoint" />
          </mxGeometry>
        </mxCell>
        <mxCell id="xdnr9z3-dwy1BLktOAw8-94" value="" style="endArrow=none;html=1;rounded=0;" edge="1" parent="1">
          <mxGeometry width="50" height="50" relative="1" as="geometry">
            <mxPoint x="515" y="364" as="sourcePoint" />
            <mxPoint x="505" y="356" as="targetPoint" />
          </mxGeometry>
        </mxCell>
        <mxCell id="xdnr9z3-dwy1BLktOAw8-95" value="" style="endArrow=none;html=1;rounded=0;" edge="1" parent="1">
          <mxGeometry width="50" height="50" relative="1" as="geometry">
            <mxPoint x="614" y="344" as="sourcePoint" />
            <mxPoint x="625" y="336" as="targetPoint" />
          </mxGeometry>
        </mxCell>
        <mxCell id="xdnr9z3-dwy1BLktOAw8-96" value="" style="endArrow=none;html=1;rounded=0;" edge="1" parent="1">
          <mxGeometry width="50" height="50" relative="1" as="geometry">
            <mxPoint x="625" y="344" as="sourcePoint" />
            <mxPoint x="615" y="336" as="targetPoint" />
          </mxGeometry>
        </mxCell>
        <mxCell id="xdnr9z3-dwy1BLktOAw8-97" value="" style="endArrow=none;html=1;rounded=0;" edge="1" parent="1">
          <mxGeometry width="50" height="50" relative="1" as="geometry">
            <mxPoint x="724" y="304" as="sourcePoint" />
            <mxPoint x="735" y="296" as="targetPoint" />
          </mxGeometry>
        </mxCell>
        <mxCell id="xdnr9z3-dwy1BLktOAw8-98" value="" style="endArrow=none;html=1;rounded=0;" edge="1" parent="1">
          <mxGeometry width="50" height="50" relative="1" as="geometry">
            <mxPoint x="735" y="304" as="sourcePoint" />
            <mxPoint x="725" y="296" as="targetPoint" />
          </mxGeometry>
        </mxCell>
        <mxCell id="xdnr9z3-dwy1BLktOAw8-99" value="" style="endArrow=none;html=1;rounded=0;" edge="1" parent="1">
          <mxGeometry width="50" height="50" relative="1" as="geometry">
            <mxPoint x="754" y="354" as="sourcePoint" />
            <mxPoint x="765" y="346" as="targetPoint" />
          </mxGeometry>
        </mxCell>
        <mxCell id="xdnr9z3-dwy1BLktOAw8-100" value="" style="endArrow=none;html=1;rounded=0;" edge="1" parent="1">
          <mxGeometry width="50" height="50" relative="1" as="geometry">
            <mxPoint x="765" y="354" as="sourcePoint" />
            <mxPoint x="755" y="346" as="targetPoint" />
          </mxGeometry>
        </mxCell>
        <mxCell id="xdnr9z3-dwy1BLktOAw8-101" value="" style="endArrow=none;html=1;rounded=0;" edge="1" parent="1">
          <mxGeometry width="50" height="50" relative="1" as="geometry">
            <mxPoint x="874" y="254" as="sourcePoint" />
            <mxPoint x="885" y="246" as="targetPoint" />
          </mxGeometry>
        </mxCell>
        <mxCell id="xdnr9z3-dwy1BLktOAw8-102" value="" style="endArrow=none;html=1;rounded=0;" edge="1" parent="1">
          <mxGeometry width="50" height="50" relative="1" as="geometry">
            <mxPoint x="885" y="254" as="sourcePoint" />
            <mxPoint x="875" y="246" as="targetPoint" />
          </mxGeometry>
        </mxCell>
        <mxCell id="xdnr9z3-dwy1BLktOAw8-103" value="\(X\)" style="text;html=1;align=center;verticalAlign=middle;resizable=0;points=[];autosize=1;strokeColor=none;fillColor=none;fontSize=30;" vertex="1" parent="1">
          <mxGeometry x="400" y="484" width="80" height="50" as="geometry" />
        </mxCell>
        <mxCell id="xdnr9z3-dwy1BLktOAw8-104" value="&lt;div style=&quot;font-size: 30px;&quot;&gt;\(Y\)&lt;/div&gt;" style="text;html=1;align=center;verticalAlign=middle;resizable=0;points=[];autosize=1;strokeColor=none;fillColor=none;fontSize=30;" vertex="1" parent="1">
          <mxGeometry x="780" y="340" width="80" height="50" as="geometry" />
        </mxCell>
        <mxCell id="xdnr9z3-dwy1BLktOAw8-106" value="&lt;font style=&quot;font-size: 20px;&quot;&gt;\((X_i, Y_i, Z_i)\)&lt;/font&gt;" style="text;html=1;align=center;verticalAlign=middle;resizable=0;points=[];autosize=1;strokeColor=none;fillColor=none;" vertex="1" parent="1">
          <mxGeometry x="424.5" y="75" width="170" height="40" as="geometry" />
        </mxCell>
      </root>
    </mxGraphModel>
  </diagram>
</mxfile>
